<svg xmlns="http://www.w3.org/2000/svg" viewBox="0 0 1800 950" role="img" aria-label="Night tuning car meet">
  <defs>
    <linearGradient id="sky" x1="0" y1="0" x2="1" y2="1"><stop stop-color="#02070b"/><stop offset=".45" stop-color="#06141a"/><stop offset="1" stop-color="#120407"/></linearGradient>
    <radialGradient id="glow" cx=".28" cy=".52" r=".42"><stop stop-color="#00d7ff" stop-opacity=".42"/><stop offset=".5" stop-color="#00d7ff" stop-opacity=".08"/><stop offset="1" stop-opacity="0"/></radialGradient>
    <linearGradient id="car" x1="0" x2="1"><stop stop-color="#111"/><stop offset=".46" stop-color="#f7f8fb"/><stop offset=".58" stop-color="#25272d"/><stop offset="1" stop-color="#07080a"/></linearGradient>
    <filter id="blur"><feGaussianBlur stdDeviation="18"/></filter>
  </defs>
  <rect width="1800" height="950" fill="url(#sky)"/>
  <rect width="1800" height="950" fill="url(#glow)"/>
  <g opacity=".35">
    <path d="M0 540 C290 460 420 480 670 500 C980 525 1200 430 1800 455 L1800 950 L0 950Z" fill="#081018"/>
    <path d="M-50 690 C330 620 620 650 910 635 C1260 615 1510 655 1850 610 L1850 950 L-50 950Z" fill="#030507"/>
  </g>
  <g opacity=".8">
    <circle cx="1350" cy="250" r="3" fill="#fff"/><circle cx="1520" cy="210" r="2" fill="#fff"/><circle cx="1180" cy="180" r="2" fill="#fff"/>
  </g>
  <g transform="translate(270 498)">
    <ellipse cx="600" cy="270" rx="620" ry="80" fill="#00cfff" opacity=".12" filter="url(#blur)"/>
    <path d="M120 215 L245 105 C315 42 438 30 590 34 L805 43 C915 50 985 74 1055 145 L1168 217 C1225 228 1258 263 1274 310 L1235 342 L141 342 L86 310 C88 264 98 235 120 215Z" fill="url(#car)"/>
    <path d="M310 105 C405 66 610 64 790 76 C870 82 930 113 985 166 L700 153 L275 160 C281 138 292 119 310 105Z" fill="#061015"/>
    <path d="M350 98 C455 69 606 70 707 77 L660 150 L298 156 C305 130 320 112 350 98Z" fill="#0f242b"/>
    <path d="M728 80 C836 88 901 115 960 167 L705 153 Z" fill="#10272e"/>
    <path d="M85 305 L320 300 L392 335 L136 338Z" fill="#f7fbff"/>
    <path d="M1042 300 L1280 306 L1232 338 L967 335Z" fill="#f7fbff"/>
    <circle cx="335" cy="338" r="92" fill="#050607"/><circle cx="335" cy="338" r="55" fill="#15191d" stroke="#e8f6ff" stroke-width="8"/><circle cx="335" cy="338" r="16" fill="#d8f6ff"/>
    <circle cx="1010" cy="338" r="92" fill="#050607"/><circle cx="1010" cy="338" r="55" fill="#15191d" stroke="#e8f6ff" stroke-width="8"/><circle cx="1010" cy="338" r="16" fill="#d8f6ff"/>
    <path d="M445 218 C605 195 786 198 945 222" stroke="#00d7ff" stroke-width="6" fill="none" opacity=".95"/>
    <path d="M88 304 C190 286 245 286 322 302" stroke="#00d7ff" stroke-width="4" opacity=".8"/>
  </g>
  <g opacity=".55" filter="url(#blur)">
    <ellipse cx="1115" cy="835" rx="470" ry="45" fill="#ff284c"/>
    <ellipse cx="632" cy="822" rx="400" ry="40" fill="#00d7ff"/>
  </g>
</svg>
