<svg xmlns="http://www.w3.org/2000/svg" viewBox="0 0 1800 950" role="img" aria-label="Sunrise tuning road">
  <defs>
    <linearGradient id="a" y1="0" y2="1"><stop stop-color="#06131a"/><stop offset=".42" stop-color="#26353a"/><stop offset=".72" stop-color="#d98b45"/><stop offset="1" stop-color="#0b0d0d"/></linearGradient>
    <linearGradient id="road" y1="0" y2="1"><stop stop-color="#293338"/><stop offset="1" stop-color="#050607"/></linearGradient>
    <linearGradient id="red" x1="0" x2="1"><stop stop-color="#070707"/><stop offset=".45" stop-color="#b60820"/><stop offset="1" stop-color="#120306"/></linearGradient>
  </defs>
  <rect width="1800" height="950" fill="url(#a)"/>
  <circle cx="1280" cy="430" r="180" fill="#ffc36b" opacity=".5"/>
  <path d="M0 535 C310 430 510 470 740 410 C1030 333 1270 380 1800 300 L1800 950 L0 950Z" fill="#101b1d" opacity=".8"/>
  <path d="M0 610 C250 560 470 590 760 545 C1070 498 1360 548 1800 500 L1800 950 L0 950Z" fill="#071011"/>
  <path d="M790 510 C960 600 1145 755 1335 950 L245 950 C470 768 600 620 790 510Z" fill="url(#road)"/>
  <path d="M803 548 C880 650 950 770 1020 950" stroke="#ffffff" stroke-width="9" stroke-dasharray="70 52" opacity=".78"/>
  <g transform="translate(390 565) scale(.82)">
    <path d="M70 205 L205 98 C288 32 515 20 720 42 C835 55 925 86 1003 162 L1130 207 C1185 226 1218 257 1235 304 L1186 345 L102 345 L40 305 C43 260 53 230 70 205Z" fill="url(#red)"/>
    <path d="M280 100 C410 64 655 66 812 91 C865 100 910 125 957 166 L250 166 C255 135 264 114 280 100Z" fill="#121a1d"/>
    <circle cx="300" cy="345" r="86" fill="#040404"/><circle cx="300" cy="345" r="51" fill="#1d2224" stroke="#fff" stroke-width="7"/>
    <circle cx="990" cy="345" r="86" fill="#040404"/><circle cx="990" cy="345" r="51" fill="#1d2224" stroke="#fff" stroke-width="7"/>
    <path d="M74 292 L285 285 L350 320 L100 326Z" fill="#fff8e8"/>
    <path d="M912 287 L1220 300 L1180 329 L840 319Z" fill="#fff8e8"/>
  </g>
  <g transform="translate(1000 620) scale(.46)" opacity=".75">
    <path d="M70 205 L205 98 C288 32 515 20 720 42 C835 55 925 86 1003 162 L1130 207 C1185 226 1218 257 1235 304 L1186 345 L102 345 L40 305 C43 260 53 230 70 205Z" fill="#f7f7f7"/>
    <circle cx="300" cy="345" r="86" fill="#040404"/><circle cx="990" cy="345" r="86" fill="#040404"/>
  </g>
</svg>
