<svg xmlns="http://www.w3.org/2000/svg" viewBox="0 0 1000 700" role="img" aria-label="Modified roadster">
  <rect width="1000" height="700" fill="#07090c"/>
  <path d="M0 470 C180 420 330 445 500 425 C690 402 820 430 1000 390 L1000 700 L0 700Z" fill="#121a1f"/>
  <circle cx="185" cy="165" r="150" fill="#ffba52" opacity=".2"/>
  <circle cx="800" cy="115" r="220" fill="#00d7ff" opacity=".12"/>
  <g transform="translate(85 280)">
    <path d="M54 170 L190 72 C260 22 455 16 625 46 C720 63 795 102 852 155 L930 185 C965 202 988 231 996 266 L950 300 L70 300 L28 262 C30 224 38 194 54 170Z" fill="#ffba52"/>
    <path d="M265 70 C370 35 548 42 665 70 C715 82 755 106 798 145 L215 148 C226 110 244 83 265 70Z" fill="#10191f"/>
    <path d="M80 214 C210 190 315 186 455 198" stroke="#ffffff" stroke-width="6" fill="none"/>
    <circle cx="238" cy="302" r="76" fill="#020303"/><circle cx="238" cy="302" r="44" fill="#151a1f" stroke="#fff" stroke-width="7"/>
    <circle cx="790" cy="302" r="76" fill="#020303"/><circle cx="790" cy="302" r="44" fill="#151a1f" stroke="#fff" stroke-width="7"/>
    <path d="M35 250 L222 242 L290 275 L62 282Z" fill="#00d7ff"/>
    <path d="M805 238 L988 252 L948 281 L755 270Z" fill="#ff284c"/>
  </g>
</svg>
