<svg xmlns="http://www.w3.org/2000/svg" viewBox="0 0 1000 700" role="img" aria-label="Modified wagon">
  <rect width="1000" height="700" fill="#080609"/>
  <path d="M0 475 C220 395 410 440 590 410 C770 380 875 410 1000 380 L1000 700 L0 700Z" fill="#151016"/>
  <rect x="70" y="90" width="860" height="4" fill="#ff284c" opacity=".75"/>
  <rect x="150" y="132" width="700" height="4" fill="#00d7ff" opacity=".75"/>
  <g transform="translate(70 275)">
    <path d="M48 180 L175 74 C242 18 420 8 610 30 C742 45 828 92 904 170 L956 190 C990 205 1014 232 1025 270 L975 305 L74 305 L24 267 C26 230 34 200 48 180Z" fill="#f4f5f7"/>
    <path d="M235 73 C335 34 555 38 682 60 C755 73 810 103 860 156 L185 155 C195 116 214 85 235 73Z" fill="#0b171c"/>
    <path d="M415 49 L390 155" stroke="#f4f5f7" stroke-width="10"/>
    <path d="M645 61 L620 157" stroke="#f4f5f7" stroke-width="10"/>
    <circle cx="240" cy="307" r="76" fill="#030303"/><circle cx="240" cy="307" r="43" fill="#20252a" stroke="#fff" stroke-width="7"/>
    <circle cx="810" cy="307" r="76" fill="#030303"/><circle cx="810" cy="307" r="43" fill="#20252a" stroke="#fff" stroke-width="7"/>
    <path d="M28 252 L228 244 L292 278 L58 284Z" fill="#00d7ff"/>
  </g>
</svg>
