<svg xmlns="http://www.w3.org/2000/svg" viewBox="0 0 1000 700" role="img" aria-label="Modified hatchback">
  <rect width="1000" height="700" fill="#080b0d"/>
  <circle cx="220" cy="140" r="180" fill="#00d7ff" opacity=".14"/>
  <path d="M80 460 C210 400 330 405 500 410 C660 416 780 390 920 430 L920 620 L80 620Z" fill="#11171a"/>
  <g transform="translate(95 250)">
    <path d="M60 170 L165 70 C232 18 385 20 545 40 C627 51 690 82 748 145 L828 174 C870 190 898 220 912 260 L870 295 L72 295 L28 260 C30 225 40 192 60 170Z" fill="#e8e9ec"/>
    <path d="M210 75 C300 43 465 50 565 66 C620 76 657 105 698 143 L175 145 C182 115 193 88 210 75Z" fill="#0e1b20"/>
    <circle cx="220" cy="296" r="70" fill="#030303"/><circle cx="220" cy="296" r="40" fill="#1b2024" stroke="#fff" stroke-width="6"/>
    <circle cx="725" cy="296" r="70" fill="#030303"/><circle cx="725" cy="296" r="40" fill="#1b2024" stroke="#fff" stroke-width="6"/>
    <path d="M35 245 L212 236 L270 268 L60 274Z" fill="#00d7ff"/>
  </g>
</svg>
